<?xml version="1.0" encoding="UTF-8" standalone="no"?>
<svg
   xmlns:dc="http://purl.org/dc/elements/1.1/"
   xmlns:cc="http://creativecommons.org/ns#"
   xmlns:rdf="http://www.w3.org/1999/02/22-rdf-syntax-ns#"
   xmlns:svg="http://www.w3.org/2000/svg"
   xmlns="http://www.w3.org/2000/svg"
   height="64"
   width="64"
   version="1.1"
   id="svg59">
  <metadata
     id="metadata63">
    <rdf:RDF>
      <cc:Work
         rdf:about="">
        <dc:format>image/svg+xml</dc:format>
        <dc:type
           rdf:resource="http://purl.org/dc/dcmitype/StillImage" />
        <dc:title></dc:title>
      </cc:Work>
    </rdf:RDF>
  </metadata>
  <defs
     id="defs37">
    <radialGradient
       id="a"
       gradientUnits="userSpaceOnUse"
       cy="43.5"
       cx="4.993"
       gradientTransform="matrix(2.0038,0,0,1.4,27.988,-17.4)"
       r="2.5">
      <stop
         stop-color="#181818"
         offset="0"
         id="stop2" />
      <stop
         stop-color="#181818"
         stop-opacity="0"
         offset="1"
         id="stop4" />
    </radialGradient>
    <radialGradient
       id="b"
       gradientUnits="userSpaceOnUse"
       cy="43.5"
       cx="4.993"
       gradientTransform="matrix(2.0038,0,0,1.4,-20.012,-104.4)"
       r="2.5">
      <stop
         stop-color="#181818"
         offset="0"
         id="stop7" />
      <stop
         stop-color="#181818"
         stop-opacity="0"
         offset="1"
         id="stop9" />
    </radialGradient>
    <linearGradient
       id="c"
       y2="39.999"
       gradientUnits="userSpaceOnUse"
       x2="25.058"
       y1="47.028"
       x1="25.058">
      <stop
         stop-color="#181818"
         stop-opacity="0"
         offset="0"
         id="stop12" />
      <stop
         stop-color="#181818"
         offset=".5"
         id="stop14" />
      <stop
         stop-color="#181818"
         stop-opacity="0"
         offset="1"
         id="stop16" />
    </linearGradient>
    <linearGradient
       id="e"
       y2="43"
       gradientUnits="userSpaceOnUse"
       x2="24"
       gradientTransform="matrix(1.4324,0,0,1.4363,-109.81841,5.8201554)"
       y1="5"
       x1="24">
      <stop
         stop-color="#fff"
         offset="0"
         id="stop19" />
      <stop
         stop-color="#fff"
         stop-opacity=".235"
         offset=".063"
         id="stop21" />
      <stop
         stop-color="#fff"
         stop-opacity=".157"
         offset=".951"
         id="stop23" />
      <stop
         stop-color="#fff"
         stop-opacity=".392"
         offset="1"
         id="stop25" />
    </linearGradient>
    <radialGradient
       id="d"
       fx="6.2"
       gradientUnits="userSpaceOnUse"
       cy="9.957"
       cx="6.73"
       gradientTransform="matrix(0,13.394,-16.444,0,7.8601967,-118.55837)"
       r="12.672">
      <stop
         stop-color="#bd94e7"
         offset="0"
         id="stop28" />
      <stop
         stop-color="#7b6ca3"
         offset=".262"
         id="stop30" />
      <stop
         stop-color="#574a76"
         offset=".705"
         id="stop32" />
      <stop
         stop-color="#3f3654"
         offset="1"
         id="stop34" />
    </radialGradient>
  </defs>
  <path
     d="M 26.298808,58.147193 25.17595,10.514972 q -4.903655,1.838102 -7.66004,5.752721 -2.72562,3.916157 -2.72562,9.738095 0,1.327432 0.136896,2.179574 0.169198,0.816763 0.339934,1.327433 0.170735,0.476829 0.307632,0.749084 0.169197,0.272254 0.169197,0.476829 -1.804262,0 -3.199374,-0.339933 Q 11.147926,30.023464 10.194266,29.24054 9.2744461,28.459155 8.7637768,27.164023 8.2869469,25.871968 8.2869469,23.964649 q 0,-2.314931 0.985961,-4.562184 1.0213391,-2.245715 2.7579221,-4.256091 1.770422,-2.0073 4.120732,-3.710043 2.384149,-1.7027441 5.072853,-2.9286584 2.722545,-1.2597535 5.651203,-1.9396206 2.962497,-0.7167829 5.891156,-0.7167829 0.782923,0 1.430489,0.033839 0.679867,0.033839 1.359733,0.1015186 L 36.170723,48.885928 50.844776,6.1896645 h 4.868277 L 36.341458,58.148731 H 26.29727 Z"
     fill="#ffffff"
     id="path57"
     style="stroke-width:1.53816" />
</svg>
